# xmcd
#
# Track frame offsets:
#	150
#	19021
#	36893
#	58397
#	76747
#	97995
#	114867
#	132612
#	150247
#	169787
#	191331
#	206743
#	226602
#
# Disc length: 3285 seconds
#
# Revision: 0
# Processed by: cddbd v1.5.2PL0 Copyright (c) Steve Scherf et al.
# Submitted via: EasyCDDAExtractor 15.3.0.1
#
DISCID=990cd30d
DTITLE=I See Hawks In LA - New Kind Of Lonely
DYEAR=2012
DGENRE=Acoustic
TTITLE0=Bohemian Highway
TTITLE1=Dear Flash
TTITLE2=The Spirit Of Death
TTITLE3=New Kind Of Lonely
TTITLE4=I Fell in Love With the Grateful Dead
TTITLE5=Mary Austin Sky
TTITLE6=Big Old Hypodermic Needle
TTITLE7=River Run
TTITLE8=Highland Park Serenade
TTITLE9=Younger But Wiser
TTITLE10=Hunger Mountain Breakdown
TTITLE11=Your Love Is Going to Kill Me
TTITLE12=If You Lead I Will Follow
EXTD=
EXTT0=
EXTT1=
EXTT2=
EXTT3=
EXTT4=
EXTT5=
EXTT6=
EXTT7=
EXTT8=
EXTT9=
EXTT10=
EXTT11=
EXTT12=
PLAYORDER=
